<?xml version="1.0" encoding="UTF-8" standalone="no"?>
<!-- Created with Inkscape (http://www.inkscape.org/) -->

<svg
   width="600"
   height="600"
   viewBox="0 0 158.75 158.75"
   version="1.1"
   id="svg5"
   inkscape:version="1.2.1 (9c6d41e410, 2022-07-14)"
   xml:space="preserve"
   sodipodi:docname="logo.svg"
   xmlns:inkscape="http://www.inkscape.org/namespaces/inkscape"
   xmlns:sodipodi="http://sodipodi.sourceforge.net/DTD/sodipodi-0.dtd"
   xmlns="http://www.w3.org/2000/svg"
   xmlns:svg="http://www.w3.org/2000/svg"><sodipodi:namedview
     id="namedview7"
     pagecolor="#ffffff"
     bordercolor="#000000"
     borderopacity="0.25"
     inkscape:showpageshadow="false"
     inkscape:pageopacity="0.0"
     inkscape:pagecheckerboard="0"
     inkscape:deskcolor="#d1d1d1"
     inkscape:document-units="px"
     showgrid="false"
     inkscape:zoom="0.72833333"
     inkscape:cx="289.70252"
     inkscape:cy="347.36842"
     inkscape:window-width="1920"
     inkscape:window-height="1046"
     inkscape:window-x="-11"
     inkscape:window-y="-11"
     inkscape:window-maximized="1"
     inkscape:current-layer="g1543" /><defs
     id="defs2" /><g
     inkscape:label="Layer 1"
     inkscape:groupmode="layer"
     id="layer1"><g
       id="g1543"
       transform="matrix(1.9053119,0,0,1.9053119,44.854022,11.081743)"
       style="stroke-width:0.524848"><g
         id="g1513"
         style="stroke-width:0.349899"
         transform="matrix(1.5,0,0,1.5,-9.0591415,-17.921806)"><path
           id="path297"
           style="fill:#44c2cc;fill-opacity:1;stroke-width:1.85155;stroke-linecap:square;stroke-linejoin:round;stroke-opacity:0;paint-order:fill markers stroke"
           inkscape:transform-center-y="-2.3144369"
           d="M 18.118282,8.0703802 C 15.445805,12.699257 12.773328,17.328133 10.10085,21.95701 c 2.672478,4.628876 5.344955,9.257753 8.017432,13.886629 C 20.79076,31.214763 23.463237,26.585886 26.135714,21.95701 23.463237,17.328133 20.79076,12.699257 18.118282,8.0703802 Z"
           sodipodi:nodetypes="ccccc" /><path
           id="path517"
           style="fill:#1b365d;fill-opacity:1;stroke-width:1.85155;stroke-linecap:square;stroke-linejoin:round;stroke-opacity:0;paint-order:fill markers stroke"
           inkscape:transform-center-y="-1.1572185"
           d="m 42.170604,21.956995 c -5.344963,6e-6 -10.689926,1.1e-5 -16.03489,1.5e-5 -2.672485,4.628872 -5.344972,9.257744 -8.017458,13.886615 5.344964,-4e-6 10.689927,-1e-5 16.03489,-1.5e-5 2.672486,-4.628871 5.344972,-9.257742 8.017458,-13.886615 z"
           sodipodi:nodetypes="ccccc"
           inkscape:transform-center-x="-2.0043612" /><path
           id="path519"
           style="fill:#038645;fill-opacity:1;stroke-width:1.85155;stroke-linecap:square;stroke-linejoin:round;stroke-opacity:0;paint-order:fill markers stroke"
           inkscape:transform-center-y="1.1572185"
           d="m 42.170604,49.730225 c -2.672487,-4.628871 -5.344972,-9.257742 -8.017458,-13.886615 -5.344963,-4e-6 -10.689927,-9e-6 -16.03489,-1.5e-5 2.672485,4.628873 5.344972,9.257744 8.017458,13.886615 5.344963,5e-6 10.689926,1e-5 16.03489,1.5e-5 z"
           sodipodi:nodetypes="ccccc"
           inkscape:transform-center-x="-2.0043612" /><path
           id="path521"
           style="fill:#3c3e3f;fill-opacity:1;stroke-width:1.85155;stroke-linecap:square;stroke-linejoin:round;stroke-opacity:0;paint-order:fill markers stroke"
           inkscape:transform-center-y="2.314437"
           d="m 18.118281,63.61684 c 2.672477,-4.628877 5.344954,-9.257754 8.017433,-13.88663 -2.672478,-4.628876 -5.344956,-9.257754 -8.017433,-13.886631 -2.672478,4.628878 -5.344955,9.257755 -8.017432,13.88663 2.672477,4.628876 5.344954,9.257753 8.017432,13.886631 z"
           sodipodi:nodetypes="ccccc" /><path
           id="path523"
           style="fill:#9ec53a;fill-opacity:1;stroke-width:1.85155;stroke-linecap:square;stroke-linejoin:round;stroke-opacity:0;paint-order:fill markers stroke"
           inkscape:transform-center-y="1.1572185"
           d="m -5.9340408,49.730223 c 5.344963,-6e-6 10.6899251,-1e-5 16.0348898,-1.4e-5 2.672485,-4.628872 5.344971,-9.257744 8.017458,-13.886614 -5.344964,2e-6 -10.6899276,9e-6 -16.0348904,1.4e-5 -2.6724854,4.628871 -5.3449714,9.257743 -8.0174574,13.886614 z"
           sodipodi:nodetypes="ccccc"
           inkscape:transform-center-x="2.0043609" /><path
           id="path525"
           style="fill:#1e3b7e;fill-opacity:1;stroke-width:1.85155;stroke-linecap:square;stroke-linejoin:round;stroke-opacity:0;paint-order:fill markers stroke"
           inkscape:transform-center-y="-1.1572191"
           d="m -5.9340408,21.956993 c 2.672486,4.628872 5.344973,9.257743 8.0174574,13.886616 5.3449631,5e-6 10.6899284,9e-6 16.0348914,1.5e-5 -2.672487,-4.628873 -5.344973,-9.257744 -8.017458,-13.886615 -5.3449622,-5e-6 -10.6899258,-1.1e-5 -16.0348908,-1.6e-5 z"
           sodipodi:nodetypes="ccccc"
           inkscape:transform-center-x="2.0043607" /></g></g></g></svg>
